<?xml version="1.0" encoding="utf-8"?>
<!-- Generator: Adobe Illustrator 19.0.0, SVG Export Plug-In . SVG Version: 6.00 Build 0)  -->
<svg version="1.1" id="Layer_1" xmlns="http://www.w3.org/2000/svg" xmlns:xlink="http://www.w3.org/1999/xlink" x="0px" y="0px"
	 viewBox="0 0 130 39" style="enable-background:new 0 0 130 39;" xml:space="preserve">
<style type="text/css">
	.st0{fill:none;}
	.st1{fill:#F7941E;}
	.st2{fill:#B5D334;}
	.st3{fill:#009ADE;}
	.st4{fill:#BAD532;}
	.st5{opacity:0.4;fill:#C4C4C4;}
	.st6{fill:#B5B5B5;}
	.st7{fill:#5C5C5C;}
</style>
<g id="XMLID_112_">
	<path id="XMLID_52_" class="st0" d="M79.8,7.1C77.1,10,76,13.9,76,18.7c0,2.8,0.4,5.2,1.1,7.3h24.5c0.6-2.2,0.8-4.4,0.8-6.3
		c0-6.5-2.1-10.7-4.8-13.5c-0.9-0.9-1.8-1.6-2.7-2.2c-1.7-0.7-3.4-0.9-5-0.9C87.1,3,82.9,3.7,79.8,7.1z"/>
	<path id="XMLID_53_" class="st0" d="M60.7,25H60c-0.3,0-0.7-0.1-0.7,0.4v0.5h5c-0.5-0.3-1-0.6-1.7-0.7C62.4,25.2,61.8,25,60.7,25z"
		/>
	<path id="XMLID_55_" class="st0" d="M60.7,24.2h0.7c0.9,0,1.5,0,1.9-0.2c0.5-0.2,1-0.5,1.5-1.5c0.4-0.7,0.6-1.5,0.6-2.4
		c0-1.7-0.6-3.6-1.7-4.5c-1-0.9-2.4-0.9-2.8-0.9c-1.6,0-1.6,0.3-1.6,0.7v8.3C59.3,24.2,59.8,24.2,60.7,24.2z"/>
	<path id="XMLID_57_" class="st0" d="M114.3,3.3c0.5-0.3,0.9-0.6,1.4-0.8c-0.7,0.2-1.4,0.6-2,1.1c-0.3,0.3-0.5,0.6-0.8,0.9
		C113.4,4,113.8,3.6,114.3,3.3z"/>
	<path id="XMLID_58_" class="st1" d="M106.9,18.3c0,3-0.5,5.5-1.4,7.7h2.3c0.7-1.9,1.1-4.1,1.1-6.7c0-3.9-1-9.2-5.6-13.3
		c-1.5-1.3-3.1-2.3-4.8-3c1,0.6,1.9,1.2,2.8,2C105.9,9,106.9,14.4,106.9,18.3z"/>
	<path id="XMLID_60_" class="st1" d="M76,18.7c0-4.8,1.1-8.6,3.8-11.5C82.9,3.7,87.1,3,89.9,3c1.6,0,3.3,0.3,5,0.9
		C92.5,2.5,90.1,2,87.9,2C85.2,2,81,2.7,77.9,6.1c-2.7,2.9-3.8,6.7-3.8,11.5c0,3.3,0.6,6,1.4,8.2h1.6C76.5,23.9,76,21.5,76,18.7z"/>
	<path id="XMLID_62_" class="st1" d="M125.2,4.7c0.5,0.5,0.7,1,0.8,1.4c0.1,0.5,0.2,0.9,0.3,1.3c0.1,0.4,0.1,0.7,0.1,0.9
		c0.1,0.3,0.2,0.3,0.3,0.3c0.1,0,0.3-0.1,0.3-0.5c0-0.2,0-0.4,0-0.6c0-0.5,0-1,0-1.4c0-0.6,0.1-2.3,0.1-2.9c0-0.4,0.1-0.5,0.1-0.7
		c0-0.2-0.2-0.3-0.3-0.3c-0.1,0-0.2,0-0.4,0c-0.1,0-0.3,0-1-0.1c-0.1,0-0.2,0-0.3,0c0,0.1,0,0.1,0,0.2C125.3,2.7,125.2,4,125.2,4.7z
		"/>
	<path id="XMLID_63_" class="st1" d="M118.1,2.1c-0.8,0-1.6,0.1-2.4,0.3c-0.5,0.2-1,0.5-1.4,0.8c-0.5,0.3-0.9,0.7-1.3,1.1
		c-0.9,1.2-1,2.6-1,3.3c0,2.8,1.9,4.8,5.8,7.9l1.3,1c3.6,2.8,6.1,5.6,6.7,9.3h1.7c-0.9-3.2-3.3-5.8-6.5-8.3l-1.3-1
		c-3.9-3.1-5.8-5.1-5.8-7.9c0-0.9,0.1-2.8,1.7-4.2c1.1-1,2.7-1.4,4.3-1.4c1,0,2,0.1,2.9,0.4c-0.3-0.3-0.7-0.5-1.3-0.7
		C120.7,2.3,119.4,2.1,118.1,2.1z"/>
	<path id="XMLID_64_" class="st2" d="M20.3,18.7c0-2.4,0.1-3.1,0.3-3.5c0.3-0.5,0.7-0.7,1.3-0.8l0.3,0c0.3,0,0.7,0,0.7-0.3
		c0-0.2-0.3-0.2-0.3-0.2c-0.1,0-0.1,0-0.2,0c-0.2,0-0.4,0-0.6,0c-2.2,0-0.7,0.1-2.4,0.1c-0.3,0-0.6,0-0.9,0c-1,0-2.1-0.1-3.2-0.1
		c-0.1,0-0.1,0-0.2,0c-0.3,0-0.3,0.2-0.3,0.2c0,0.3,0.3,0.2,0.7,0.3l0.6,0.1c0.4,0.1,1,0.3,1.3,1c0,0.2,0.2,0.7,0.2,3.1v7.4h2.6
		V18.7z"/>
	<path id="XMLID_65_" class="st2" d="M58,25.4c0-0.5,0.4-0.4,0.7-0.4h0.7c1.1,0,1.7,0.1,1.9,0.2c0.6,0.1,1.2,0.4,1.7,0.7h3.5
		c-0.8-0.7-1.8-1.2-3-1.6c2.1-1.6,3-3.9,3-5.7c0-1.8-1-2.9-1.9-3.5c-1.5-1.1-3.2-1.2-4.3-1.2L57.2,14h-0.9c-1.6,0-2.8-0.1-3.3-0.1
		c-0.1,0-0.3,0-0.3,0.3c0,0.1,0.2,0.2,0.3,0.2c0.3,0.1,0.3,0,0.9,0.1c1.5,0.2,1.6,0.2,1.6,4.6v7H58V25.4z M58,15.5
		c0-0.4,0-0.7,1.6-0.7c0.4,0,1.8,0,2.8,0.9c1,0.9,1.7,2.7,1.7,4.5c0,0.9-0.2,1.7-0.6,2.4c-0.5,0.9-1,1.3-1.5,1.5
		c-0.4,0.1-1,0.2-1.9,0.2h-0.7c-0.9,0-1.4,0-1.4-0.5V15.5z"/>
	<path id="XMLID_68_" class="st2" d="M71.5,20c0-3.2,0.9-7.6,4.1-11.7c2.5-3.2,6.8-6.8,14.6-6.8c2.6,0,5.5,0.4,8.3,1.6
		c-3.4-1.9-7-2.6-10.3-2.6c-7.8,0-12.1,3.7-14.6,6.8c-3.3,4.2-4.1,8.6-4.1,11.7c0,2.3,0.4,4.6,1.2,6.9h1.6
		C71.8,23.9,71.5,21.9,71.5,20z"/>
	<path id="XMLID_69_" class="st2" d="M102.4,19.6c0,1.9-0.2,4.1-0.8,6.3h2.2c0.4-1.9,0.5-3.7,0.5-5.4c0-6.5-2.1-10.7-4.8-13.5
		c-1.5-1.5-3-2.5-4.6-3.1c0.9,0.6,1.8,1.3,2.7,2.2C100.3,8.9,102.4,13.1,102.4,19.6z"/>
	<path id="XMLID_70_" class="st3" d="M75.6,8.2c-3.3,4.2-4.1,8.6-4.1,11.7c0,1.9,0.3,4,0.9,5.9h3.2c-0.9-2.2-1.4-4.9-1.4-8.2
		c0-4.8,1.1-8.6,3.8-11.5C81,2.7,85.2,2,87.9,2c2.2,0,4.6,0.5,6.9,1.9c1.6,0.6,3.2,1.6,4.6,3.1c2.8,2.8,4.8,7,4.8,13.5
		c0,1.7-0.1,3.5-0.5,5.4h1.8c0.9-2.2,1.4-4.7,1.4-7.7c0-3.9-1-9.2-5.6-13.3c-0.9-0.8-1.9-1.5-2.8-2c-2.8-1.2-5.7-1.6-8.3-1.6
		C82.4,1.4,78.1,5.1,75.6,8.2z"/>
	<path id="XMLID_71_" class="st2" d="M119.2,22l-2.1-1.8c-4-3.3-6.2-5.9-6.2-10c0-2.4,0.7-4.4,2.1-5.9c0.2-0.3,0.4-0.6,0.8-0.9
		c0.6-0.5,1.2-0.9,2-1.1c1.6-0.7,3.4-1,5.5-1c1,0,1.7,0,2.7,0.2c0.6,0.1,0.9,0.2,1.4,0.3c0-0.2,0.1-0.3,0.1-0.4
		c0-0.2-0.2-0.3-0.3-0.3c-0.1,0-0.2,0-0.4,0c-0.1,0-0.3,0-1-0.1c-0.7-0.1-1-0.2-1.7-0.3c-1-0.2-1.8-0.2-2.7-0.2c-2.8,0-5,0.5-7,1.9
		c-2.2,1.6-3.4,3.9-3.4,7c0,4.1,2.2,6.7,6.2,10l2.1,1.8c1.9,1.5,3.6,3,4.6,4.9h1.3C122.2,24.5,120.8,23.3,119.2,22z"/>
	<path id="XMLID_72_" class="st4" d="M123.6,3.7c-0.2-0.1-0.4-0.2-0.7-0.2c0.7,0.6,1,1.2,1.1,1.7c0.1,0.5,0.2,0.9,0.3,1.3
		c0.1,0.4,0.1,0.7,0.1,0.9c0.1,0.3,0.2,0.3,0.3,0.3c0.1,0,0.3-0.1,0.3-0.5c0-0.2,0-0.4,0-0.6c0-0.5,0-1,0-1.4c0-0.1,0-0.2,0-0.4
		C124.8,4.4,124.3,4,123.6,3.7z"/>
	<path id="XMLID_73_" class="st3" d="M121.3,1.4c-2.1,0-3.9,0.3-5.5,1c0.7-0.2,1.5-0.3,2.4-0.3c1.3,0,2.6,0.2,3.6,0.6
		c0.5,0.2,0.9,0.5,1.3,0.7c0.2,0.1,0.5,0.1,0.7,0.2c0.8,0.3,1.2,0.7,1.6,1c0-0.8,0.1-2,0.1-2.6c0-0.1,0-0.2,0-0.2
		c-0.5-0.1-0.8-0.2-1.4-0.3C122.9,1.4,122.2,1.4,121.3,1.4z"/>
	<path id="XMLID_74_" class="st3" d="M119.2,16.6l-1.3-1c-3.9-3.1-5.8-5.1-5.8-7.9c0-0.7,0.1-2.1,1-3.3c-1.4,1.5-2.1,3.4-2.1,5.9
		c0,4.1,2.2,6.7,6.2,10l2.1,1.8c1.5,1.3,2.9,2.5,4,3.9h2.7C125.3,22.2,122.8,19.4,119.2,16.6z"/>
	<path id="XMLID_75_" class="st5" d="M120.4,36C120.4,35.9,120.4,35.9,120.4,36C120.4,35.9,120.4,35.9,120.4,36z"/>
	<path id="XMLID_76_" class="st6" d="M82.7,34.9c-1.3-0.8-2.6-1.8-3.8-3.3c-1.2-1.4-2.3-3.3-3-5.7h-1.6c0.7,1.9,1.7,3.5,2.7,4.7
		C78.7,32.7,80.7,34.1,82.7,34.9z"/>
	<path id="XMLID_77_" class="st1" d="M82.7,34.9c-1.3-0.8-2.6-1.8-3.8-3.3c-1.2-1.4-2.3-3.3-3-5.7h-1.6c0.7,1.9,1.7,3.5,2.7,4.7
		C78.7,32.7,80.7,34.1,82.7,34.9z"/>
	<path id="XMLID_78_" class="st6" d="M100.7,31.6c-2.6,2.9-6.8,6.1-14,6.1c-2,0-4.9-0.3-7.8-1.5c3.5,2.1,7.3,2.5,9.7,2.5
		c7.2,0,11.5-3.2,14-6.1c1.6-1.8,3-3.9,3.9-6.6h-2.3C103.4,28.2,102.1,30,100.7,31.6z"/>
	<path id="XMLID_79_" class="st1" d="M100.7,31.6c-2.6,2.9-6.8,6.1-14,6.1c-2,0-4.9-0.3-7.8-1.5c3.5,2.1,7.3,2.5,9.7,2.5
		c7.2,0,11.5-3.2,14-6.1c1.6-1.8,3-3.9,3.9-6.6h-2.3C103.4,28.2,102.1,30,100.7,31.6z"/>
	<path id="XMLID_80_" class="st6" d="M111.8,35.5c-0.7-0.5-1.3-1.2-1.7-2.1c-0.4-0.8-0.6-1.6-0.6-2.7c0-0.1,0-0.3,0-0.4
		c0-0.2,0-0.5-0.3-0.5c-0.5,0-0.4,0.6-0.4,1.2c-0.1,1.4-0.1,1.2-0.1,2c0,0,0,0.1,0,0.1C109.4,34.4,110.5,35.1,111.8,35.5z"/>
	<path id="XMLID_81_" class="st1" d="M111.8,35.5c-0.7-0.5-1.3-1.2-1.7-2.1c-0.4-0.8-0.6-1.6-0.6-2.7c0-0.1,0-0.3,0-0.4
		c0-0.2,0-0.5-0.3-0.5c-0.5,0-0.4,0.6-0.4,1.2c-0.1,1.4-0.1,1.2-0.1,2c0,0,0,0.1,0,0.1C109.4,34.4,110.5,35.1,111.8,35.5z"/>
	<path id="XMLID_82_" class="st6" d="M124.8,27.7c0,2.6-1.1,5.9-4,8c-0.1,0.1-0.2,0.1-0.3,0.2c0,0-0.1,0-0.1,0.1
		c-2,1.3-4.6,1.7-6.7,1.7c-1.4,0-2.8-0.1-4.2-0.5c-0.3-0.1-0.5-0.1-0.7-0.2c0.2,0.3,0.8,0.7,2.6,1.2c1.5,0.4,2.8,0.5,4.2,0.5
		c2.3,0,5.1-0.5,7.2-2c2.9-2,4-5.4,4-8c0-1-0.2-1.9-0.4-2.8h-1.7C124.7,26.5,124.8,27.1,124.8,27.7z"/>
	<path id="XMLID_83_" class="st1" d="M124.8,27.7c0,2.6-1.1,5.9-4,8c-0.1,0.1-0.2,0.1-0.3,0.2c0,0-0.1,0-0.1,0.1
		c-2,1.3-4.6,1.7-6.7,1.7c-1.4,0-2.8-0.1-4.2-0.5c-0.3-0.1-0.5-0.1-0.7-0.2c0.2,0.3,0.8,0.7,2.6,1.2c1.5,0.4,2.8,0.5,4.2,0.5
		c2.3,0,5.1-0.5,7.2-2c2.9-2,4-5.4,4-8c0-1-0.2-1.9-0.4-2.8h-1.7C124.7,26.5,124.8,27.1,124.8,27.7z"/>
	<path id="XMLID_84_" class="st6" d="M17,36.9c-0.3,0.3-0.9,0.4-1.2,0.4c-0.1,0-0.1,0-0.2,0c-0.1,0-0.3,0-0.3,0.2
		c0,0.1,0.1,0.2,0.3,0.3c0.1,0,0.1,0,0.2,0c1.5-0.1,2-0.1,2.6-0.1h0.9c1.9,0,3.1,0.1,4,0.1c0.4,0,0.7,0,1.1,0c1,0,2,0,3,0
		c1.8,0,1.8-0.2,2-0.9c0.1-0.6,0.4-1.8,0.5-3.2c0-0.1,0-0.1,0-0.2c0-0.1,0-0.3-0.2-0.3c-0.3,0-0.3,0.6-0.4,1c-0.6,2.1-2,2.3-4.5,2.3
		c-1.1,0-3.1,0.1-3.8-0.7c-0.4-0.4-0.7-1.4-0.7-5.4v-4.5h-2.6v5.6C17.6,35.6,17.3,36.5,17,36.9z"/>
	<path id="XMLID_85_" class="st1" d="M17,36.9c-0.3,0.3-0.9,0.4-1.2,0.4c-0.1,0-0.1,0-0.2,0c-0.1,0-0.3,0-0.3,0.2
		c0,0.1,0.1,0.2,0.3,0.3c0.1,0,0.1,0,0.2,0c1.5-0.1,2-0.1,2.6-0.1h0.9c1.9,0,3.1,0.1,4,0.1c0.4,0,0.7,0,1.1,0c1,0,2,0,3,0
		c1.8,0,1.8-0.2,2-0.9c0.1-0.6,0.4-1.8,0.5-3.2c0-0.1,0-0.1,0-0.2c0-0.1,0-0.3-0.2-0.3c-0.3,0-0.3,0.6-0.4,1c-0.6,2.1-2,2.3-4.5,2.3
		c-1.1,0-3.1,0.1-3.8-0.7c-0.4-0.4-0.7-1.4-0.7-5.4v-4.5h-2.6v5.6C17.6,35.6,17.3,36.5,17,36.9z"/>
	<path id="XMLID_86_" class="st6" d="M33.7,35.9c1.3,1.2,3.4,2.2,6.5,2.2c1,0,4.1-0.1,6.5-2.3c2.4-2.2,2.9-5.5,2.9-9.4v-0.5h-2V27
		c0,2.1-0.1,5.5-1.8,7.7c-1.2,1.4-3,2.3-5.2,2.3c-3.2,0-4.8-1.7-5.6-3c-0.8-1.4-1.3-3.7-1.3-6.5v-1.5h-2.6v1.7
		C30.9,30,31.3,33.6,33.7,35.9z"/>
	<path id="XMLID_87_" class="st1" d="M33.7,35.9c1.3,1.2,3.4,2.2,6.5,2.2c1,0,4.1-0.1,6.5-2.3c2.4-2.2,2.9-5.5,2.9-9.4v-0.5h-2V27
		c0,2.1-0.1,5.5-1.8,7.7c-1.2,1.4-3,2.3-5.2,2.3c-3.2,0-4.8-1.7-5.6-3c-0.8-1.4-1.3-3.7-1.3-6.5v-1.5h-2.6v1.7
		C30.9,30,31.3,33.6,33.7,35.9z"/>
	<path id="XMLID_88_" class="st6" d="M54.7,36.9c-0.2,0.2-0.4,0.2-0.4,0.3c-0.2,0.1-0.6,0.1-0.8,0.1h-0.1c-0.3,0-0.3,0.2-0.3,0.2
		c0,0.4,0.7,0.3,1.3,0.2c1.1-0.1,1.4-0.1,1.6-0.1h0.8c0.3,0,0.6,0,1.5,0.1c1.2,0.1,2,0.1,2.6,0.1c2.7,0,4.7-0.6,6.3-2.4
		c1.3-1.5,1.8-3.1,1.8-4.5c0-0.9-0.2-2.9-2-4.6c-0.2-0.2-0.3-0.3-0.5-0.5H63c2.2,1.4,3.3,4.1,3.3,6.3c0,1.7-0.6,2.6-0.9,2.9
		c-0.7,0.9-2,1.6-3.6,1.6c-0.4,0-1.8-0.1-2.7-0.4c-1-0.4-1-0.9-1.1-2.5c0-0.2,0-0.3,0-0.4c0-0.8,0-1.6,0-2.4v-5.1h-2.6v5.6
		C55.4,35.6,55.1,36.5,54.7,36.9z"/>
	<path id="XMLID_89_" class="st1" d="M54.7,36.9c-0.2,0.2-0.4,0.2-0.4,0.3c-0.2,0.1-0.6,0.1-0.8,0.1h-0.1c-0.3,0-0.3,0.2-0.3,0.2
		c0,0.4,0.7,0.3,1.3,0.2c1.1-0.1,1.4-0.1,1.6-0.1h0.8c0.3,0,0.6,0,1.5,0.1c1.2,0.1,2,0.1,2.6,0.1c2.7,0,4.7-0.6,6.3-2.4
		c1.3-1.5,1.8-3.1,1.8-4.5c0-0.9-0.2-2.9-2-4.6c-0.2-0.2-0.3-0.3-0.5-0.5H63c2.2,1.4,3.3,4.1,3.3,6.3c0,1.7-0.6,2.6-0.9,2.9
		c-0.7,0.9-2,1.6-3.6,1.6c-0.4,0-1.8-0.1-2.7-0.4c-1-0.4-1-0.9-1.1-2.5c0-0.2,0-0.3,0-0.4c0-0.8,0-1.6,0-2.4v-5.1h-2.6v5.6
		C55.4,35.6,55.1,36.5,54.7,36.9z"/>
	<path id="XMLID_90_" class="st7" d="M78.9,36.2c-1.5-0.9-3-2.1-4.3-3.7c-1.6-2-2.8-4.3-3.5-6.6h-1.6c0.7,2,1.8,4,3.2,5.7
		C74.5,33.8,76.7,35.3,78.9,36.2z"/>
	<path id="XMLID_91_" class="st5" d="M78.9,36.2c-1.5-0.9-3-2.1-4.3-3.7c-1.6-2-2.8-4.3-3.5-6.6h-1.6c0.7,2,1.8,4,3.2,5.7
		C74.5,33.8,76.7,35.3,78.9,36.2z"/>
	<path id="XMLID_92_" class="st7" d="M97.5,31.5c-1.7,2-4.7,4.4-9.5,4.4c-1.6,0-3.4-0.3-5.3-1c2.5,1.5,5.2,2,7.3,2
		c4.8,0,7.7-2.4,9.5-4.4c1.7-2,2.6-4.3,3.1-6.6h-2.2C99.8,27.8,98.9,29.8,97.5,31.5z"/>
	<path id="XMLID_93_" class="st5" d="M97.5,31.5c-1.7,2-4.7,4.4-9.5,4.4c-1.6,0-3.4-0.3-5.3-1c2.5,1.5,5.2,2,7.3,2
		c4.8,0,7.7-2.4,9.5-4.4c1.7-2,2.6-4.3,3.1-6.6h-2.2C99.8,27.8,98.9,29.8,97.5,31.5z"/>
	<path id="XMLID_94_" class="st7" d="M100.7,31.6c1.4-1.5,2.6-3.4,3.5-5.7h-1.8c-0.5,2.3-1.4,4.5-3.1,6.6c-1.7,2-4.7,4.4-9.5,4.4
		c-2.1,0-4.7-0.5-7.3-2c-2-0.8-4-2.1-5.7-4.2c-1-1.2-2-2.8-2.7-4.7h-3.2c0.7,2.4,1.8,4.6,3.5,6.6c1.3,1.6,2.8,2.8,4.3,3.7
		c2.9,1.2,5.8,1.5,7.8,1.5C93.9,37.7,98.2,34.5,100.7,31.6z"/>
	<path id="XMLID_95_" class="st7" d="M108.5,33.2c-0.1-0.2-0.3-0.4-0.4-0.7c-0.4-0.8-0.6-1.6-0.6-2.7c0-0.1,0-0.3,0-0.4
		c0-0.2,0-0.5-0.3-0.5c-0.5,0-0.4,0.6-0.4,1.2c-0.1,1.4-0.1,1.2-0.1,2c0,1.1-0.2,2.5,0,3.5c0.1,0.4,0.3,0.8,2.1,1.4
		c-0.1-0.1-0.1-0.3-0.2-0.4C108.4,35.6,108.5,34.3,108.5,33.2z"/>
	<path id="XMLID_96_" class="st5" d="M108.5,33.2c-0.1-0.2-0.3-0.4-0.4-0.7c-0.4-0.8-0.6-1.6-0.6-2.7c0-0.1,0-0.3,0-0.4
		c0-0.2,0-0.5-0.3-0.5c-0.5,0-0.4,0.6-0.4,1.2c-0.1,1.4-0.1,1.2-0.1,2c0,1.1-0.2,2.5,0,3.5c0.1,0.4,0.3,0.8,2.1,1.4
		c-0.1-0.1-0.1-0.3-0.2-0.4C108.4,35.6,108.5,34.3,108.5,33.2z"/>
	<path id="XMLID_98_" class="st7" d="M119.7,33.9c-0.9,0.9-2.2,2-5,2c-0.9,0-1.9-0.1-2.9-0.4c1.4,1.1,3.3,1.4,4.8,1.4
		c1.7,0,2.9-0.4,3.8-0.9c0,0,0.1,0,0.1-0.1c0.5-0.3,0.9-0.7,1.2-1c1-1.1,1.8-2.4,1.8-4.3c0-1.9-0.6-3.4-1.5-4.7h-1.3
		c0.6,1.1,0.9,2.3,0.9,3.7C121.5,31.5,120.8,32.8,119.7,33.9z"/>
	<path id="XMLID_99_" class="st7" d="M124.8,27.7c0-0.6-0.1-1.2-0.2-1.8h-2.7c0.9,1.3,1.5,2.8,1.5,4.7c0,1.9-0.7,3.2-1.8,4.3
		c-0.3,0.3-0.7,0.7-1.2,1c0.1-0.1,0.2-0.1,0.3-0.2C123.7,33.7,124.8,30.3,124.8,27.7z"/>
	<path id="XMLID_100_" class="st5" d="M124.8,27.7c0-0.6-0.1-1.2-0.2-1.8h-2.7c0.9,1.3,1.5,2.8,1.5,4.7c0,1.9-0.7,3.2-1.8,4.3
		c-0.3,0.3-0.7,0.7-1.2,1c0.1-0.1,0.2-0.1,0.3-0.2C123.7,33.7,124.8,30.3,124.8,27.7z"/>
	<path id="XMLID_101_" class="st7" d="M113.6,37.7c2.2,0,4.7-0.5,6.7-1.7c-0.8,0.5-2,0.9-3.8,0.9c-1.5,0-3.4-0.3-4.8-1.4
		c-1.3-0.4-2.4-1.1-3.3-2.4c-0.1,1.1-0.2,2.4,0,3.4c0,0.1,0.1,0.3,0.2,0.4c0.2,0.1,0.4,0.1,0.7,0.2
		C110.9,37.5,112.2,37.7,113.6,37.7z"/>
	<path id="XMLID_102_" class="st5" d="M113.6,37.7c2.2,0,4.7-0.5,6.7-1.7c-0.8,0.5-2,0.9-3.8,0.9c-1.5,0-3.4-0.3-4.8-1.4
		c-1.3-0.4-2.4-1.1-3.3-2.4c-0.1,1.1-0.2,2.4,0,3.4c0,0.1,0.1,0.3,0.2,0.4c0.2,0.1,0.4,0.1,0.7,0.2
		C110.9,37.5,112.2,37.7,113.6,37.7z"/>
	<path id="XMLID_103_" class="st3" d="M21.1,15c-0.3-0.5-0.9-0.7-1.6-0.7l-0.4,0c-0.2,0-0.4,0-0.4-0.2c0-0.1,0.1-0.2,0.3-0.2
		c0.1,0,0.1,0,0.2,0c1,0,2.1,0.1,3.2,0.1c0.3,0,0.5,0,0.8,0c0.4,0,0.8,0,1.1,0c0.5,0,1-0.1,1.5-0.1c0.1,0,0.1,0,0.2,0
		c0.1,0,0.3,0,0.3,0.2c0,0.3-0.3,0.3-0.6,0.3c-0.8,0.1-1.2,0.3-1.4,0.8c-0.2,0.3-0.3,0.9-0.3,3.3V23c0,1.4,0.1,1.5-0.4,1.7
		c-1.7,0.9-4.3,1.4-6.7,1.4c-4.6,0-8.1-1.4-10.4-3.4c-2.6-2.3-3.8-5.8-3.8-9c0-3.3,1.2-6.2,2.9-8.3c2.5-2.9,5.9-4.1,10.5-4.1
		c0.8,0,1.7,0.1,2.4,0.1c0.8,0.1,2,0.3,2.7,0.4c0.5,0.1,0.8,0.2,1.8,0.3c0.7,0.1,1.2,0,1.2,0.3c0,0,0,0.1,0,0.6
		c0,0.5-0.2,1.1-0.2,2.7c0,0.4,0,0.8,0,1.2c0,0.1,0,0.2,0,0.3c0,0.1,0,0.4-0.3,0.4c-0.3,0-0.2-0.3-0.3-0.7c-0.2-1-0.4-1.7-1.1-2.4
		c-1.3-1.2-3.7-2-7.2-2c-1.3,0-5.6,0.2-7.9,3.7C7,6.7,5.6,9,5.6,12.7c0,3.2,1.2,6.6,3.3,8.7c2,2.1,5.1,3.4,8.3,3.4
		c1,0,2.8-0.2,3.6-0.7c0.3-0.2,0.6-0.5,0.6-1.1v-5.4C21.4,16.2,21.4,15.5,21.1,15z"/>
	<path id="XMLID_105_" class="st3" d="M30.1,6.4c0-2.3,0-3.1-0.5-3.6c-0.3-0.3-0.7-0.4-1.1-0.4c-0.4,0-0.5-0.1-0.6-0.1
		c-0.1,0-0.2,0-0.3,0c-0.2,0-0.3-0.1-0.3-0.2c0-0.3,0.3-0.3,0.5-0.3L31,1.9h1.5c5.4,0,6.4,0,7-0.1c0.7-0.1,0.8-0.3,0.9-0.3
		c0.1,0,0.2,0.1,0.2,0.2c0,0.1,0,0.2-0.1,0.4c-0.2,0.8-0.2,1.3-0.2,1.7c0,1-0.1,1.4-0.1,1.6c0,0.1,0,0.3-0.3,0.3
		c-0.1,0-0.2-0.1-0.2-0.2c0-0.1,0-0.2-0.1-0.6c-0.1-0.4-0.1-0.8-0.3-1c-0.2-0.3-0.7-0.6-1.1-0.7c-1.2-0.3-3.4-0.3-4.7-0.3
		c-0.8,0-0.8,0.1-0.8,0.3v9.4c0,0.1,0,0.3,0.2,0.3h0.4c1.9,0,3.7,0,4.6-0.1c0.7-0.1,1.1-0.2,1.4-0.4c0.2-0.1,0.2-0.2,0.3-0.3
		c0.1-0.1,0.2-0.1,0.3-0.1c0.1,0,0.2,0.1,0.2,0.2c0,0,0,0,0,0.1c0,0.6-0.1,0.2-0.3,1.8c-0.1,0.5-0.1,0.8-0.1,1.5
		c0,0.4,0.1,1.1-0.3,1.1c-0.1,0-0.2,0-0.2-0.3c0-0.1,0-0.2,0-0.2c0-0.2,0-0.5-0.1-0.8c-0.1-0.5-0.4-1-1.6-1.1
		c-0.8-0.1-3-0.2-3.9-0.2H33c-0.2,0-0.3,0-0.3,0.2v7c0,1.6,0.2,2.4,1,2.7c0.4,0.2,1,0.3,2.6,0.3c0.3,0,0.6,0,0.9,0
		c1.5,0,2.4-0.3,2.9-0.8c0.3-0.3,0.5-0.9,0.6-1.3c0.1-0.2,0.1-0.9,0.3-1c0,0,0,0,0.1,0c0.2,0,0.2,0.1,0.2,0.3c0,0.1,0,0.2,0,0.2
		c0,0.4,0,0.7-0.3,2.2c-0.3,1.7-0.6,1.6-1.2,1.6c-0.2,0-0.4,0-0.6,0c-0.7,0-1.3,0-2,0c-2.6-0.1-3.4-0.1-4-0.1c-0.5,0-1-0.1-1.8-0.1
		H31c-0.5,0-1,0-2.7,0.1c-0.1,0-0.1,0-0.2,0c-0.3,0-0.3-0.2-0.3-0.3c0-0.2,0.2-0.2,0.3-0.2c0.1,0,0.2,0,0.2,0c0.2,0,0.8-0.1,1.1-0.4
		c0.3-0.3,0.6-1.3,0.6-5.4V6.4z"/>
	<path id="XMLID_107_" class="st3" d="M49,19.2c0,0.6,0,4.3,0.3,5.3c0.2,0.7,0.5,0.9,1.8,1l0.5,0c0.2,0,0.4,0,0.4,0.2
		c0,0.4-1.2,0.3-1.7,0.2c-1.5-0.1-1.9-0.1-2.3-0.1h-1c-0.3,0-0.3,0-1,0.1c-0.6,0-0.8,0-1.1,0h-0.4c-0.2,0-0.5,0-0.5-0.3
		c0-0.2,0.2-0.2,0.3-0.2c0.1,0,0.2,0,0.3,0c0.8-0.1,1-0.3,1.1-0.4c0.3-0.3,0.6-1.3,0.6-5.4V6.4c0-0.4-0.1-2-0.1-2.2
		c0-0.6-0.2-1.5-1.6-1.5l-0.5,0c-0.3,0-0.5,0-0.5-0.3c0-0.2,0.2-0.2,0.3-0.2c1.2,0,1.7,0.1,3.3,0.1h0.6c0.3,0,0.6,0,0.9,0
		c0.9,0,1.8-0.1,2.6-0.1c3,0,4.9,0.5,6.1,1.7c0.7,0.7,1.8,2,1.8,4.1c0,2.9-1.1,4.7-3.8,5.9l0.9,1.2l2.2,4c1.3,1.6,2.4,3,3.5,4.1
		c1.2,1.3,2.6,2.3,4.8,2.4c0.1,0,0.2,0,0.3,0c0.2,0,0.3,0.1,0.3,0.2c0,0,0,0.3-0.3,0.3c-0.1,0-0.3,0-0.4,0c-0.7,0-1.5,0-2.2,0
		c-2.1,0-2.6-0.2-3.5-0.6c-0.6-0.3-1.4-0.9-3.7-4.1l-3.8-6.4c-0.2-0.3-0.4-0.3-0.5-0.3l-3.8-0.1c-0.2,0-0.2,0.2-0.2,0.3V19.2z
		 M49,12.8c0,0.1,0,0.2,0.1,0.3c0.4,0.4,2.2,0.6,2.8,0.6c0.2,0,0.4,0,0.6,0c0.9,0,2.1-0.1,3.3-1.4c0.8-0.9,0.9-2.1,0.9-3.2
		c0-2-0.5-3.1-1.6-4.3c-0.6-0.7-1.7-1.5-3.9-1.5c-2.1,0-2.3,0.2-2.3,0.6V12.8z"/>
	<path id="XMLID_110_" class="st1" d="M85.9,8.6c0.4,0.2,1.9,0.9,2.7,1c1.4,0.1,0.2-1.6,0.5-2.3c0.2-0.7,0.6-0.2,0.6,0.2
		c0.1,0.5-0.3,1.2,0,1.7c0.7,2.2,6.3-2.3,7.1-2.8c0.5-0.3,0.4-0.2,0.6,0c-0.4,0.5-6.3,4.8-6.4,5.2c-0.2,0.6-2.5,13.8-2.8,14.2
		c-0.3-1.5,0.2-7.6,0.2-9c-0.1,0.3-4.1,8.6-4.5,8.9c-0.1-0.8,2.3-7.9,2.6-8.8c0.3-1,0.9-2.6,1-3.1c0.1-0.5,0.7-2,0.6-2.5
		c-0.2-0.7-1.3-1.2-1.9-1.6c-0.6-0.4-4.9-2.7-5.4-3.5"/>
	<rect id="XMLID_111_" x="2.9" y="25.7" class="st7" width="127.1" height="0.3"/>
</g>
</svg>
