<?xml version="1.0" encoding="utf-8"?>
<!-- Generator: Adobe Illustrator 19.0.0, SVG Export Plug-In . SVG Version: 6.00 Build 0)  -->
<svg version="1.1" id="Layer_1" xmlns="http://www.w3.org/2000/svg" xmlns:xlink="http://www.w3.org/1999/xlink" x="0px" y="0px"
	 viewBox="0 0 14 31" style="enable-background:new 0 0 14 31;" xml:space="preserve">
<style type="text/css">
	.st0{fill:#009ADE;}
</style>
<path id="XMLID_123_" class="st0" d="M11.5,0H2.5C2.5,0,0,0,0,2.8v25.4C0,31,2.5,31,2.5,31h8.9c0,0,2.5,0,2.5-2.8V2.8
	C14,0,11.5,0,11.5,0z M5.1,1.7c0-0.2,0.1-0.3,0.2-0.3h3.5c0.1,0,0.2,0.1,0.2,0.3v0.1c0,0.2-0.1,0.3-0.2,0.3H5.3
	C5.2,2.1,5.1,2,5.1,1.7L5.1,1.7z M7,29.8c-0.7,0-1.3-0.6-1.3-1.4C5.7,27.6,6.3,27,7,27c0.7,0,1.3,0.6,1.3,1.4
	C8.3,29.2,7.7,29.8,7,29.8z M12.7,26H1.3V3.5h11.5V26z"/>
</svg>
